Coordinates
version=1
nRows=15
nColumns=42
inDegrees=yes

Units are S.I. units (second, meters, Newtons, ...)
If the header above contains a line with 'inDegrees', this indicates whether rotational values are in degrees (yes) or radians (no).

endheader
time	pelvis_tilt	pelvis_list	pelvis_rotation	pelvis_tx	pelvis_ty	pelvis_tz	hip_flexion_r	hip_adduction_r	hip_rotation_r	knee_angle_r	knee_adduction_r	knee_angle_r_beta	ankle_angle_r	subtalar_angle_r	mtp_angle_r	hip_flexion_l	hip_adduction_l	hip_rotation_l	knee_angle_l	knee_adduction_l	knee_angle_l_beta	ankle_angle_l	subtalar_angle_l	mtp_angle_l	lumbar_extension	lumbar_bending	lumbar_rotation	arm_flex_r	arm_add_r	arm_rot_r	elbow_flex_r	pro_sup_r	wrist_flex_r	wrist_dev_r	arm_flex_l	arm_add_l	arm_rot_l	elbow_flex_l	pro_sup_l	wrist_flex_l	wrist_dev_l
      1.32000000	     13.37839434	     -5.54071202	      4.31704268	      0.28509566	      0.85351800	     -0.16175654	      3.39158430	      7.04101584	    -10.25634162	     18.00057760	      1.79003899	      0.31416935	     10.36433074	     -9.92659071	     -7.51171497	    -24.19074194	    -10.81562363	      0.70157344	     42.46828607	      9.70146494	      0.74121142	     -8.31754132	    -14.14737072	     -7.51171497	    -24.68162196	      6.48530111	      4.60030606	     -7.30889196	     -7.34894698	     -9.17178654	     26.60594654	     90.00000001	      0.00000000	      0.00000000	     22.20563121	     -6.20674351	      8.82929072	     38.36177383	     90.00000001	      0.00000000	      0.00000000
      1.33000000	     13.50956635	     -5.60113360	      4.11065732	      0.29639733	      0.85495997	     -0.16032282	      2.26894924	      7.35769309	    -10.13056490	     17.71495252	      1.70585979	      0.30918425	     11.05357361	     -9.31637979	     -7.51143530	    -22.77239312	    -11.03777522	      0.88880684	     45.57392302	      9.52054919	      0.79541501	     -8.71800912	    -15.27647636	     -7.51143530	    -24.83753574	      6.46750988	      4.82234436	     -6.33245998	     -7.52928688	     -9.03153707	     26.69264087	     90.00000001	      0.00000000	      0.00000000	     21.41858034	     -6.19556395	      8.81018168	     37.22568652	     90.00000001	      0.00000000	      0.00000000
      1.34000000	     13.61666437	     -5.63132293	      3.90907301	      0.30751335	      0.85632248	     -0.15889421	      1.16978921	      7.63873297	    -10.09728824	     17.40964178	      1.58378267	      0.30385557	     11.75656745	     -8.61137517	     -7.51114938	    -21.22496274	    -11.21544437	      0.70278733	     48.62808461	      9.00928797	      0.84872019	     -8.33004266	    -16.16064883	     -7.51114938	    -24.98373408	      6.39680632	      5.04731139	     -5.30216097	     -7.70994933	     -8.86559275	     26.79612434	     90.00000001	      0.00000000	      0.00000000	     20.63158133	     -6.19194090	      8.73788764	     36.09084967	     90.00000001	      0.00000000	      0.00000000
      1.35000000	     13.59436302	     -5.73381793	      3.65723974	      0.31832642	      0.85740448	     -0.15735626	      0.33362452	      8.01196785	    -10.16342952	     17.29266858	      1.32781126	      0.30181400	     12.47875198	     -7.75706335	     -7.51064017	    -19.39307581	    -11.48767651	     -0.23399209	     51.71755198	      7.97327454	      0.90264156	     -7.15917548	    -16.40406157	     -7.51064017	    -25.01978544	      6.37077500	      5.35160431	     -4.22724431	     -7.89867574	     -8.62046267	     26.90568439	     90.00000001	      0.00000000	      0.00000000	     19.85022866	     -6.10056997	      8.42085536	     34.93218535	     90.00000001	      0.00000000	      0.00000000
      1.36000000	     13.76822101	     -5.64895736	      3.50610227	      0.32910632	      0.85882417	     -0.15615856	     -0.85874164	      8.11393091	    -10.10928844	     16.94900483	      1.26455058	      0.29581594	     13.18938446	     -7.04295480	     -7.51011026	    -17.78777150	    -11.48005916	     -1.26105333	     54.34466287	      6.55379784	      0.94849330	     -5.52744456	    -16.57206657	     -7.51011026	    -25.26873434	      6.19055672	      5.51951343	     -3.12801716	     -8.07295749	     -8.37175659	     27.14117563	     90.00000001	      0.00000000	      0.00000000	     19.06896718	     -6.06767573	      8.17281490	     33.84696886	     90.00000001	      0.00000000	      0.00000000
      1.37000000	     14.00725687	     -5.49015514	      3.37676813	      0.33981095	      0.86036582	     -0.15498573	     -2.20118780	      8.12767420	     -9.83523470	     16.46296429	      1.28474472	      0.28733293	     13.80838589	     -6.56107683	     -7.50970910	    -16.24869528	    -11.39041728	     -2.40633496	     56.58967781	      4.98767938	      0.98767620	     -3.77764647	    -16.73879181	     -7.50970910	    -25.58761305	      5.92635660	      5.65155075	     -1.99133760	     -8.21239123	     -8.12689216	     27.38288519	     90.00000001	      0.00000000	      0.00000000	     18.28439630	     -6.08500595	      8.01533454	     32.79018678	     90.00000001	      0.00000000	      0.00000000
      1.38000000	     14.25504408	     -5.30296763	      3.19730047	      0.35041288	      0.86192161	     -0.15383421	     -3.58215494	      8.09731586	     -9.35345191	     15.91466956	      1.33843340	      0.27776338	     14.27322870	     -6.35580258	     -7.50927700	    -14.72541277	    -11.23778108	     -3.79739897	     58.46187779	      3.26181247	      1.02035225	     -1.84973758	    -16.79634426	     -7.50927700	    -25.91715782	      5.61680907	      5.82026794	     -0.83960787	     -8.36631314	     -7.81197092	     27.67463839	     90.00000001	      0.00000000	      0.00000000	     17.48057196	     -6.07518188	      7.75454740	     31.77263702	     90.00000001	      0.00000000	      0.00000000
      1.39000000	     14.60444270	     -4.94458738	      3.10581876	      0.36073644	      0.86365288	     -0.15280499	     -4.99251437	      7.85123277	     -9.18999019	     15.55126732	      1.35092249	      0.27142082	     14.62321531	     -6.08885056	     -7.50912536	    -13.33583729	    -10.87464964	     -4.30847408	     59.87605567	      2.18048887	      1.04503431	     -0.00785005	    -17.24640571	     -7.50912536	    -26.39153393	      5.14659112	      5.89573229	      0.32505966	     -8.44637701	     -7.65668499	     28.10304974	     90.00000001	      0.00000000	      0.00000000	     16.66788103	     -6.17031939	      7.72330884	     31.05446488	     90.00000001	      0.00000000	      0.00000000
      1.40000000	     14.81330403	     -4.78188934	      2.79897075	      0.37126002	      0.86518077	     -0.15184722	     -6.65705043	      7.82640650	     -7.52211325	     14.31567690	      1.61602048	      0.24985570	     14.50779995	     -7.29417111	     -7.50825285	    -11.80047790	    -10.65782465	     -6.28336826	     60.99799621	      0.12644769	      1.06461587	      2.07097469	    -16.51122778	     -7.50825285	    -26.66113043	      4.85564627	      6.11097097	      1.45056618	     -8.74160151	     -6.79965632	     28.54283283	     90.00000001	      0.00000000	      0.00000000	     15.82723734	     -5.98028747	      6.75083006	     29.88021752	     90.00000001	      0.00000000	      0.00000000
      1.41000000	     14.95928350	     -4.42591059	      2.64646714	      0.38145352	      0.86655642	     -0.15084044	     -7.90665810	      7.53495570	     -7.16763476	     13.76267152	      1.69734278	      0.24020393	     14.96274766	     -6.99792616	     -7.50808264	    -10.17728708	    -10.23673872	     -6.73120691	     61.79925828	     -0.74715522	      1.07860053	      3.77030085	    -16.78744050	     -7.50808264	    -26.88304353	      4.35793777	      6.18491051	      2.64593615	     -8.79443859	     -6.60854713	     28.90241413	     90.00000001	      0.00000000	      0.00000000	     14.94302184	     -6.08004598	      6.75294918	     29.06851908	     90.00000001	      0.00000000	      0.00000000
      1.42000000	     15.09221550	     -4.07984550	      2.37560351	      0.39140079	      0.86777690	     -0.14960593	     -9.05718775	      7.27555625	     -6.89539248	     13.34697954	      1.62498777	      0.23294874	     15.28667871	     -6.71331649	     -7.50794882	     -8.56967459	     -9.83032199	     -7.10845121	     62.32555498	     -1.33594438	      1.08778614	      5.25745487	    -16.70686511	     -7.50794882	    -27.12311720	      3.81328248	      6.37012339	      3.82513837	     -8.87019278	     -6.40520062	     29.41584256	     90.00000001	      0.00000000	      0.00000000	     14.06524531	     -6.19778842	      6.68270496	     28.43214519	     90.00000001	      0.00000000	      0.00000000
      1.43000000	     15.41105147	     -3.79211776	      1.91704711	      0.40194627	      0.86925742	     -0.14882205	    -11.01260846	      6.99191014	     -4.90655845	     11.75691900	      1.90827507	      0.20519695	     15.09855107	     -7.81650208	     -7.50735709	     -7.41736941	     -9.37342095	     -8.27084445	     62.16663636	     -2.29100872	      1.08501249	      6.95311619	    -15.80879222	     -7.50735709	    -27.45068095	      3.35831125	      6.70520045	      4.87166831	     -9.22973074	     -5.19667426	     30.03201273	     90.00000001	      0.00000000	      0.00000000	     13.16747281	     -5.93725308	      5.45521420	     27.38807951	     90.00000001	      0.00000000	      0.00000000
      1.44000000	     15.27627991	     -3.47971819	      1.65248823	      0.41183336	      0.86984889	     -0.14789898	    -11.83985875	      6.71043644	     -4.77438528	     11.33899553	      1.82511653	      0.19790281	     15.47766224	     -7.56816436	     -7.50721108	     -5.56384098	     -8.93778485	     -8.18295678	     62.09012061	     -2.33665591	      1.08367704	      8.31516929	    -15.59855804	     -7.50721108	    -27.36538475	      2.89335426	      6.87243401	      5.98389043	     -9.31927148	     -5.01895093	     30.64608160	     90.00000001	      0.00000000	      0.00000000	     12.17306901	     -6.00048483	      5.34486032	     26.85356843	     90.00000001	      0.00000000	      0.00000000
      1.45000000	     15.20013147	     -3.19044029	      1.32886528	      0.42181213	      0.87038429	     -0.14714389	    -12.84214373	      6.38673678	     -4.39673187	     10.68454615	      1.87396205	      0.18648051	     15.92652583	     -7.27877899	     -7.50703304	     -3.89435266	     -8.52814989	     -7.91262950	     61.63175588	     -1.98113500	      1.07567706	      9.59543082	    -15.08170692	     -7.50703304	    -27.31891698	      2.46203700	      7.08837312	      7.04955204	     -9.48432168	     -4.62348397	     31.31318885	     90.00000001	      0.00000000	      0.00000000	     11.15269875	     -5.98557810	      5.00649949	     26.27218261	     90.00000001	      0.00000000	      0.00000000
      1.46000000	     15.11814131	     -2.93157054	      0.98605098	      0.43193426	      0.87067073	     -0.14630177	    -13.83277472	      6.12879643	     -4.12377604	     10.03124339	      1.81787172	      0.17507823	     16.30954949	     -7.00299253	     -7.50685337	     -2.32395553	     -8.16377436	     -7.47745407	     60.81095770	     -1.38995359	      1.06135143	     10.75183322	    -14.52654523	     -7.50685337	    -27.22257038	      2.04200849	      7.34415291	      8.02119621	     -9.67060542	     -4.10613455	     32.08979280	     90.00000001	      0.00000000	      0.00000000	     10.10973648	     -5.94581150	      4.48961487	     25.80520099	     90.00000001	      0.00000000	      0.00000000
